<svg width="22" height="23" viewBox="0 0 22 23" fill="none" xmlns="http://www.w3.org/2000/svg">
<path d="M21.7052 19.7927C21.0021 19.1659 20.3865 18.4473 19.875 17.6563C19.3167 16.5644 18.982 15.372 18.8907 14.149V10.5469C18.8877 10.1094 18.8487 9.67283 18.774 9.24171C18.2001 9.12698 17.6485 8.92014 17.1407 8.62921C17.3342 9.25253 17.4326 9.90152 17.4323 10.5542V14.1563C17.5217 15.6482 17.9321 17.1032 18.6355 18.4219C19.1389 19.2196 19.7362 19.954 20.4146 20.6094H1.74067C2.41909 19.954 3.01641 19.2196 3.51983 18.4219C4.2232 17.1032 4.63358 15.6482 4.72296 14.1563V10.5469C4.71912 9.70304 4.88178 8.8667 5.20161 8.08577C5.52145 7.30485 5.99219 6.59468 6.58687 5.99594C7.18155 5.3972 7.88849 4.92164 8.66722 4.59649C9.44594 4.27134 10.2812 4.10299 11.125 4.10108C12.3601 4.10207 13.5674 4.46731 14.5959 5.15108C14.4825 4.73472 14.4189 4.30638 14.4063 3.87504V3.41567C13.6449 3.04114 12.827 2.79477 11.9855 2.6865V1.76775C11.9855 1.50958 11.8829 1.26198 11.7003 1.07942C11.5178 0.89687 11.2702 0.794312 11.012 0.794312C10.7538 0.794312 10.5063 0.89687 10.3237 1.07942C10.1411 1.26198 10.0386 1.50958 10.0386 1.76775V2.72296C8.15421 2.98878 6.42963 3.92735 5.18322 5.36541C3.93682 6.80346 3.25276 8.64389 3.25733 10.5469V14.149C3.16601 15.372 2.83134 16.5644 2.27296 17.6563C1.77048 18.4455 1.16477 19.164 0.471916 19.7927C0.394137 19.8611 0.3318 19.9452 0.289053 20.0395C0.246307 20.1338 0.22413 20.2361 0.223999 20.3396V21.3313C0.223999 21.5247 0.300822 21.7101 0.437567 21.8469C0.574312 21.9836 0.759779 22.0605 0.953166 22.0605H21.224C21.4174 22.0605 21.6029 21.9836 21.7396 21.8469C21.8763 21.7101 21.9532 21.5247 21.9532 21.3313V20.3396C21.953 20.2361 21.9309 20.1338 21.8881 20.0395C21.8454 19.9452 21.783 19.8611 21.7052 19.7927Z" fill="white"/>
</svg>
