<svg width="22" height="21" viewBox="0 0 22 21" fill="none" xmlns="http://www.w3.org/2000/svg">
<path d="M9.43747 18C11.3788 17.9996 13.2643 17.3497 14.7936 16.1537L19.6017 20.9619L21.1483 19.4153L16.3401 14.6072C17.5367 13.0778 18.187 11.1919 18.1875 9.25C18.1875 4.42547 14.262 0.5 9.43747 0.5C4.61294 0.5 0.687469 4.42547 0.687469 9.25C0.687469 14.0745 4.61294 18 9.43747 18ZM9.43747 2.6875C13.0567 2.6875 16 5.63078 16 9.25C16 12.8692 13.0567 15.8125 9.43747 15.8125C5.81825 15.8125 2.87497 12.8692 2.87497 9.25C2.87497 5.63078 5.81825 2.6875 9.43747 2.6875Z" fill="white"/>
</svg>
